<svg width="102" height="102" viewBox="0 0 102 102" fill="none" xmlns="http://www.w3.org/2000/svg">
<circle cx="51" cy="51" r="50.5" fill="white" fill-opacity="0.1"/>
<circle cx="51" cy="51" r="50.5" fill="url(#paint0_radial)"/>
<circle cx="51" cy="51" r="50.5" stroke="white"/>
<path d="M42.6953 64V38.4063H50.2539C52.9961 38.4063 55.0762 38.9746 56.4941 40.1113C57.9121 41.2363 58.6211 42.9004 58.6211 45.1035C58.6211 46.4277 58.2578 47.582 57.5312 48.5664C56.8164 49.5391 55.832 50.2363 54.5781 50.6582C56.0664 50.9863 57.2617 51.7188 58.1641 52.8555C59.0781 53.9922 59.5352 55.3047 59.5352 56.793C59.5352 59.0547 58.8027 60.8242 57.3379 62.1016C55.8848 63.3672 53.8574 64 51.2559 64H42.6953ZM44.8574 51.6953V62.1719H51.3438C53.1953 62.1719 54.6602 61.7031 55.7383 60.7656C56.8281 59.8164 57.373 58.5039 57.373 56.8281C57.373 55.2461 56.8516 53.9981 55.8086 53.084C54.7773 52.1582 53.3477 51.6953 51.5195 51.6953H44.8574ZM44.8574 49.8848H50.7637C52.5684 49.8496 53.9629 49.4277 54.9473 48.6191C55.9434 47.7988 56.4414 46.6094 56.4414 45.0508C56.4414 43.4102 55.9258 42.2031 54.8945 41.4297C53.875 40.6445 52.3281 40.252 50.2539 40.252H44.8574V49.8848Z" fill="white"/>
<defs>
<radialGradient id="paint0_radial" cx="0" cy="0" r="1" gradientUnits="userSpaceOnUse" gradientTransform="translate(51 51) rotate(90) scale(51)">
<stop offset="0.862933" stop-color="white" stop-opacity="0"/>
<stop offset="1" stop-color="white" stop-opacity="0.5"/>
</radialGradient>
</defs>
</svg>
