<svg width="130" height="130" viewBox="0 0 130 130" fill="none" xmlns="http://www.w3.org/2000/svg">
<circle cx="65" cy="65" r="64.5" fill="white" fill-opacity="0.1"/>
<circle cx="65" cy="65" r="64.5" fill="url(#paint0_radial)"/>
<circle cx="65" cy="65" r="64.5" stroke="white"/>
<path d="M50.4375 75.1719H63.0762V77H48.2578V51.4062H50.4375V75.1719ZM71.0918 63.0605H73.2715C74.4785 63.0605 75.5332 62.8496 76.4355 62.4277C77.3379 61.9941 78.0234 61.4082 78.4922 60.6699C78.9727 59.9199 79.2129 59.0586 79.2129 58.0859C79.2129 56.4453 78.75 55.1621 77.8242 54.2363C76.8984 53.3105 75.5684 52.8477 73.834 52.8477C72.1934 52.8477 70.8457 53.334 69.791 54.3066C68.748 55.2676 68.2266 56.5391 68.2266 58.1211H66.1172C66.1172 56.7969 66.4512 55.5898 67.1191 54.5C67.7871 53.3984 68.7129 52.5488 69.8965 51.9512C71.0801 51.3535 72.3926 51.0547 73.834 51.0547C76.1543 51.0547 77.9824 51.6875 79.3184 52.9531C80.6543 54.2188 81.3223 55.9531 81.3223 58.1562C81.3223 59.3867 80.9297 60.5234 80.1445 61.5664C79.3711 62.5977 78.3047 63.3711 76.9453 63.8867C78.5391 64.332 79.7461 65.0996 80.5664 66.1895C81.3867 67.2676 81.7969 68.5566 81.7969 70.0566C81.7969 72.248 81.082 74.0117 79.6523 75.3477C78.2227 76.6836 76.3125 77.3516 73.9219 77.3516C72.3984 77.3516 70.998 77.0469 69.7207 76.4375C68.4551 75.8281 67.4707 74.9785 66.7676 73.8887C66.0762 72.7871 65.7305 71.5098 65.7305 70.0566H67.8398C67.8398 71.6855 68.4082 73.0156 69.5449 74.0469C70.6816 75.0664 72.1406 75.5762 73.9219 75.5762C75.7383 75.5762 77.1504 75.1133 78.1582 74.1875C79.1777 73.25 79.6875 71.8965 79.6875 70.127C79.6875 68.416 79.1367 67.1094 78.0352 66.207C76.9453 65.3047 75.334 64.8535 73.2012 64.8535H71.0918V63.0605Z" fill="white"/>
<defs>
<radialGradient id="paint0_radial" cx="0" cy="0" r="1" gradientUnits="userSpaceOnUse" gradientTransform="translate(65 65) rotate(90) scale(65)">
<stop offset="0.862933" stop-color="white" stop-opacity="0"/>
<stop offset="1" stop-color="white" stop-opacity="0.5"/>
</radialGradient>
</defs>
</svg>
