<svg width="207" height="125" viewBox="0 0 207 125" fill="none" xmlns="http://www.w3.org/2000/svg">
<g filter="url(#filter0_i)">
<path d="M0 63.4286C0 2.85716 207 2.85711 207 63.4286C207 85.9707 207 100.124 207 109.009C207 117.294 200.284 124 192 124H15C6.71573 124 0 117.294 0 109.009C0 100.124 0 85.9707 0 63.4286Z" fill="white" fill-opacity="0.1"/>
</g>
<path d="M0.5 63.4286C0.5 48.6197 13.1546 37.3806 32.5255 29.823C51.8557 22.2812 77.6643 18.5 103.5 18.5C129.336 18.5 155.144 22.2812 174.475 29.8229C193.845 37.3806 206.5 48.6197 206.5 63.4286V63.5606V63.6924V63.824V63.9554V64.0866V64.2176V64.3485V64.4791V64.6096V64.7398V64.8699V64.9998V65.1295V65.259V65.3883V65.5174V65.6464V65.7751V65.9037V66.032V66.1602V66.2882V66.416V66.5436V66.671V66.7982V66.9253V67.0521V67.1788V67.3053V67.4316V67.5577V67.6836V67.8093V67.9349V68.0602V68.1854V68.3104V68.4352V68.5598V68.6842V68.8084V68.9325V69.0563V69.18V69.3035V69.4268V69.5499V69.6729V69.7956V69.9182V70.0406V70.1627V70.2848V70.4066V70.5282V70.6497V70.771V70.892V71.0129V71.1337V71.2542V71.3746V71.4947V71.6147V71.7345V71.8541V71.9736V72.0928V72.2119V72.3308V72.4495V72.568V72.6864V72.8046V72.9225V73.0403V73.158V73.2754V73.3927V73.5097V73.6266V73.7433V73.8599V73.9762V74.0924V74.2084V74.3242V74.4399V74.5553V74.6706V74.7857V74.9006V75.0154V75.1299V75.2443V75.3585V75.4725V75.5864V75.7V75.8135V75.9268V76.04V76.1529V76.2657V76.3783V76.4907V76.603V76.715V76.8269V76.9387V77.0502V77.1616V77.2728V77.3838V77.4946V77.6053V77.7157V77.8261V77.9362V78.0461V78.1559V78.2655V78.375V78.4842V78.5933V78.7022V78.811V78.9195V79.0279V79.1361V79.2442V79.352V79.4597V79.5672V79.6746V79.7818V79.8888V79.9956V80.1022V80.2087V80.315V80.4212V80.5271V80.6329V80.7385V80.844V80.9493V81.0544V81.1593V81.2641V81.3687V81.4731V81.5774V81.6814V81.7854V81.8891V81.9927V82.0961V82.1993V82.3024V82.4053V82.508V82.6105V82.7129V82.8151V82.9172V83.0191V83.1208V83.2223V83.3237V83.4249V83.5259V83.6268V83.7275V83.828V83.9284V84.0286V84.1286V84.2285V84.3282V84.4277V84.5271V84.6263V84.7253V84.8242V84.9229V85.0214V85.1198V85.218V85.316V85.4139V85.5116V85.6091V85.7065V85.8037V85.9008V85.9976V86.0944V86.1909V86.2873V86.3835V86.4796V86.5755V86.6712V86.7668V86.8622V86.9574V87.0525V87.1474V87.2422V87.3368V87.4312V87.5255V87.6196V87.7135V87.8073V87.9009V87.9944V88.0877V88.1808V88.2738V88.3666V88.4593V88.5518V88.6441V88.7363V88.8283V88.9201V89.0118V89.1034V89.1947V89.2859V89.377V89.4679V89.5586V89.6492V89.7396V89.8299V89.92V90.0099V90.0997V90.1893V90.2788V90.3681V90.4572V90.5462V90.6351V90.7237V90.8122V90.9006V90.9888V91.0769V91.1648V91.2525V91.3401V91.4275V91.5148V91.6019V91.6888V91.7756V91.8623V91.9488V92.0351V92.1213V92.2073V92.2932V92.3789V92.4644V92.5498V92.6351V92.7202V92.8051V92.8899V92.9745V93.059V93.1433V93.2275V93.3115V93.3954V93.4791V93.5627V93.6461V93.7293V93.8124V93.8954V93.9782V94.0608V94.1433V94.2257V94.3079V94.3899V94.4718V94.5535V94.6351V94.7166V94.7978V94.879V94.96V95.0408V95.1215V95.202V95.2824V95.3626V95.4427V95.5226V95.6024V95.6821V95.7616V95.8409V95.9201V95.9991V96.078V96.1568V96.2354V96.3138V96.3921V96.4703V96.5483V96.6261V96.7038V96.7814V96.8588V96.9361V97.0132V97.0902V97.167V97.2437V97.3202V97.3966V97.4729V97.549V97.6249V97.7007V97.7764V97.8519V97.9273V98.0025V98.0776V98.1525V98.2273V98.302V98.3765V98.4508V98.525V98.5991V98.673V98.7468V98.8205V98.894V98.9673V99.0405V99.1136V99.1865V99.2593V99.332V99.4045V99.4768V99.549V99.6211V99.693V99.7648V99.8365V99.908V99.9793V100.051V100.122V100.193V100.263V100.334V100.405V100.475V100.545V100.615V100.685V100.755V100.825V100.894V100.964V101.033V101.102V101.171V101.24V101.309V101.377V101.446V101.514V101.582V101.65V101.718V101.786V101.853V101.921V101.988V102.055V102.122V102.189V102.256V102.323V102.389V102.456V102.522V102.588V102.654V102.72V102.785V102.851V102.916V102.982V103.047V103.112V103.177V103.242V103.306V103.371V103.435V103.499V103.563V103.627V103.691V103.755V103.818V103.882V103.945V104.008V104.071V104.134V104.197V104.259V104.322V104.384V104.446V104.509V104.57V104.632V104.694V104.756V104.817V104.878V104.939V105.001V105.061V105.122V105.183V105.243V105.304V105.364V105.424V105.484V105.544V105.604V105.663V105.723V105.782V105.841V105.901V105.96V106.018V106.077V106.136V106.194V106.252V106.311V106.369V106.427V106.485V106.542V106.6V106.657V106.715V106.772V106.829V106.886V106.943V106.999V107.056V107.112V107.169V107.225V107.281V107.337V107.393V107.448V107.504V107.559V107.614V107.67V107.725V107.78V107.834V107.889V107.944V107.998V108.052V108.107V108.161V108.215V108.269V108.322V108.376V108.429V108.483V108.536V108.589V108.642V108.695V108.748V108.8V108.853V108.905V108.957V109.009C206.5 117.017 200.009 123.5 192 123.5H15C6.99146 123.5 0.5 117.017 0.5 109.009V108.957V108.905V108.853V108.8V108.748V108.695V108.642V108.589V108.536V108.483V108.429V108.376V108.322V108.269V108.215V108.161V108.107V108.052V107.998V107.944V107.889V107.834V107.78V107.725V107.67V107.614V107.559V107.504V107.448V107.393V107.337V107.281V107.225V107.169V107.112V107.056V106.999V106.943V106.886V106.829V106.772V106.715V106.657V106.6V106.542V106.485V106.427V106.369V106.311V106.252V106.194V106.136V106.077V106.018V105.96V105.901V105.841V105.782V105.723V105.663V105.604V105.544V105.484V105.424V105.364V105.304V105.243V105.183V105.122V105.061V105.001V104.939V104.878V104.817V104.756V104.694V104.632V104.57V104.509V104.446V104.384V104.322V104.259V104.197V104.134V104.071V104.008V103.945V103.882V103.818V103.755V103.691V103.627V103.563V103.499V103.435V103.371V103.306V103.242V103.177V103.112V103.047V102.982V102.916V102.851V102.785V102.72V102.654V102.588V102.522V102.456V102.389V102.323V102.256V102.189V102.122V102.055V101.988V101.921V101.853V101.786V101.718V101.65V101.582V101.514V101.446V101.377V101.309V101.24V101.171V101.102V101.033V100.964V100.894V100.825V100.755V100.685V100.615V100.545V100.475V100.405V100.334V100.263V100.193V100.122V100.051V99.9793V99.908V99.8365V99.7648V99.693V99.6211V99.549V99.4768V99.4045V99.332V99.2593V99.1865V99.1136V99.0405V98.9673V98.894V98.8205V98.7468V98.673V98.5991V98.525V98.4508V98.3765V98.302V98.2273V98.1525V98.0776V98.0025V97.9273V97.8519V97.7764V97.7007V97.6249V97.549V97.4729V97.3966V97.3202V97.2437V97.167V97.0902V97.0132V96.9361V96.8588V96.7814V96.7038V96.6261V96.5483V96.4703V96.3921V96.3138V96.2354V96.1568V96.078V95.9991V95.9201V95.8409V95.7616V95.6821V95.6024V95.5227V95.4427V95.3626V95.2824V95.202V95.1215V95.0408V94.96V94.879V94.7978V94.7166V94.6351V94.5535V94.4718V94.3899V94.3079V94.2257V94.1433V94.0608V93.9782V93.8954V93.8124V93.7293V93.6461V93.5627V93.4791V93.3954V93.3115V93.2275V93.1433V93.059V92.9745V92.8899V92.8051V92.7202V92.6351V92.5498V92.4644V92.3789V92.2932V92.2073V92.1213V92.0351V91.9488V91.8623V91.7756V91.6888V91.6019V91.5148V91.4275V91.3401V91.2525V91.1648V91.0769V90.9888V90.9006V90.8123V90.7237V90.6351V90.5462V90.4572V90.3681V90.2788V90.1893V90.0997V90.0099V89.92V89.8299V89.7396V89.6492V89.5586V89.4679V89.377V89.2859V89.1947V89.1034V89.0118V88.9201V88.8283V88.7363V88.6441V88.5518V88.4593V88.3666V88.2738V88.1808V88.0877V87.9944V87.9009V87.8073V87.7135V87.6196V87.5255V87.4312V87.3368V87.2422V87.1474V87.0525V86.9574V86.8622V86.7668V86.6712V86.5755V86.4796V86.3835V86.2873V86.1909V86.0944V85.9976V85.9008V85.8037V85.7065V85.6091V85.5116V85.4139V85.316V85.218V85.1198V85.0214V84.9229V84.8242V84.7253V84.6263V84.5271V84.4277V84.3282V84.2285V84.1286V84.0286V83.9284V83.828V83.7275V83.6268V83.5259V83.4249V83.3237V83.2223V83.1208V83.0191V82.9172V82.8151V82.7129V82.6105V82.508V82.4053V82.3024V82.1993V82.0961V81.9927V81.8891V81.7854V81.6814V81.5774V81.4731V81.3687V81.2641V81.1593V81.0544V80.9493V80.844V80.7385V80.6329V80.5271V80.4212V80.315V80.2087V80.1022V79.9956V79.8888V79.7818V79.6746V79.5672V79.4597V79.352V79.2442V79.1361V79.0279V78.9195V78.811V78.7022V78.5933V78.4842V78.375V78.2655V78.1559V78.0461V77.9362V77.8261V77.7157V77.6053V77.4946V77.3838V77.2728V77.1616V77.0502V76.9387V76.8269V76.715V76.603V76.4907V76.3783V76.2657V76.1529V76.04V75.9268V75.8135V75.7V75.5864V75.4725V75.3585V75.2443V75.1299V75.0154V74.9006V74.7857V74.6706V74.5553V74.4399V74.3242V74.2084V74.0924V73.9762V73.8599V73.7433V73.6266V73.5097V73.3927V73.2754V73.158V73.0403V72.9225V72.8046V72.6864V72.568V72.4495V72.3308V72.2119V72.0928V71.9736V71.8541V71.7345V71.6147V71.4947V71.3746V71.2542V71.1337V71.0129V70.892V70.771V70.6497V70.5282V70.4066V70.2848V70.1627V70.0406V69.9182V69.7956V69.6729V69.5499V69.4268V69.3035V69.18V69.0563V68.9325V68.8084V68.6842V68.5598V68.4352V68.3104V68.1854V68.0602V67.9349V67.8093V67.6836V67.5577V67.4316V67.3053V67.1788V67.0521V66.9253V66.7982V66.671V66.5436V66.416V66.2882V66.1602V66.032V65.9037V65.7751V65.6464V65.5174V65.3883V65.259V65.1295V64.9998V64.8699V64.7398V64.6096V64.4791V64.3485V64.2176V64.0866V63.9554V63.824V63.6924V63.5606V63.4286Z" stroke="white"/>
<path d="M94.8867 77.5977H87.4512V88.25H85.2715V62.6562H93.5859C96.3164 62.6562 98.4492 63.3184 99.9844 64.6426C101.52 65.9668 102.287 67.8184 102.287 70.1973C102.287 71.8379 101.807 73.2852 100.846 74.5391C99.8848 75.793 98.5957 76.6602 96.9785 77.1406L103.377 88.0215V88.25H101.074L94.8867 77.5977ZM87.4512 75.752H94.0781C95.8945 75.752 97.3535 75.2363 98.4551 74.2051C99.5566 73.1738 100.107 71.8379 100.107 70.1973C100.107 68.3926 99.5332 66.9922 98.3848 65.9961C97.2363 65 95.625 64.502 93.5508 64.502H87.4512V75.752ZM123.381 88.25H107.35V86.6328L116.121 76.6836C117.574 75.0078 118.582 73.625 119.145 72.5352C119.707 71.4453 119.988 70.3848 119.988 69.3535C119.988 67.7363 119.514 66.459 118.564 65.5215C117.615 64.5723 116.309 64.0977 114.645 64.0977C112.922 64.0977 111.527 64.6484 110.461 65.75C109.406 66.8516 108.879 68.2812 108.879 70.0391H106.787C106.787 68.5977 107.109 67.2852 107.754 66.1016C108.41 64.918 109.336 63.9922 110.531 63.3242C111.738 62.6445 113.109 62.3047 114.645 62.3047C116.988 62.3047 118.816 62.9199 120.129 64.1504C121.453 65.3809 122.115 67.0566 122.115 69.1777C122.115 70.373 121.74 71.6797 120.99 73.0977C120.252 74.5156 118.945 76.2852 117.07 78.4062L109.934 86.4746H123.381V88.25Z" fill="white"/>
<defs>
<filter id="filter0_i" x="0" y="18" width="207" height="106" filterUnits="userSpaceOnUse" color-interpolation-filters="sRGB">
<feFlood flood-opacity="0" result="BackgroundImageFix"/>
<feBlend mode="normal" in="SourceGraphic" in2="BackgroundImageFix" result="shape"/>
<feColorMatrix in="SourceAlpha" type="matrix" values="0 0 0 0 0 0 0 0 0 0 0 0 0 0 0 0 0 0 127 0" result="hardAlpha"/>
<feOffset/>
<feGaussianBlur stdDeviation="7.5"/>
<feComposite in2="hardAlpha" operator="arithmetic" k2="-1" k3="1"/>
<feColorMatrix type="matrix" values="0 0 0 0 0.999002 0 0 0 0 0.999002 0 0 0 0 0.999002 0 0 0 1 0"/>
<feBlend mode="normal" in2="shape" result="effect1_innerShadow"/>
</filter>
</defs>
</svg>
