<svg width="130" height="130" viewBox="0 0 130 130" fill="none" xmlns="http://www.w3.org/2000/svg">
<circle cx="65" cy="65" r="64.5" fill="white" fill-opacity="0.1"/>
<circle cx="65" cy="65" r="64.5" fill="url(#paint0_radial)"/>
<circle cx="65" cy="65" r="64.5" stroke="white"/>
<path d="M55.8867 66.3477H48.4512V77H46.2715V51.4062H54.5859C57.3164 51.4062 59.4492 52.0684 60.9844 53.3926C62.5195 54.7168 63.2871 56.5684 63.2871 58.9473C63.2871 60.5879 62.8066 62.0352 61.8457 63.2891C60.8848 64.543 59.5957 65.4102 57.9785 65.8906L64.377 76.7715V77H62.0742L55.8867 66.3477ZM48.4512 64.502H55.0781C56.8945 64.502 58.3535 63.9863 59.4551 62.9551C60.5566 61.9238 61.1074 60.5879 61.1074 58.9473C61.1074 57.1426 60.5332 55.7422 59.3848 54.7461C58.2363 53.75 56.625 53.252 54.5508 53.252H48.4512V64.502ZM73.0254 63.0605H75.2051C76.4121 63.0605 77.4668 62.8496 78.3691 62.4277C79.2715 61.9941 79.957 61.4082 80.4258 60.6699C80.9062 59.9199 81.1465 59.0586 81.1465 58.0859C81.1465 56.4453 80.6836 55.1621 79.7578 54.2363C78.832 53.3105 77.502 52.8477 75.7676 52.8477C74.127 52.8477 72.7793 53.334 71.7246 54.3066C70.6816 55.2676 70.1602 56.5391 70.1602 58.1211H68.0508C68.0508 56.7969 68.3848 55.5898 69.0527 54.5C69.7207 53.3984 70.6465 52.5488 71.8301 51.9512C73.0137 51.3535 74.3262 51.0547 75.7676 51.0547C78.0879 51.0547 79.916 51.6875 81.252 52.9531C82.5879 54.2188 83.2559 55.9531 83.2559 58.1562C83.2559 59.3867 82.8633 60.5234 82.0781 61.5664C81.3047 62.5977 80.2383 63.3711 78.8789 63.8867C80.4727 64.332 81.6797 65.0996 82.5 66.1895C83.3203 67.2676 83.7305 68.5566 83.7305 70.0566C83.7305 72.248 83.0156 74.0117 81.5859 75.3477C80.1562 76.6836 78.2461 77.3516 75.8555 77.3516C74.332 77.3516 72.9316 77.0469 71.6543 76.4375C70.3887 75.8281 69.4043 74.9785 68.7012 73.8887C68.0098 72.7871 67.6641 71.5098 67.6641 70.0566H69.7734C69.7734 71.6855 70.3418 73.0156 71.4785 74.0469C72.6152 75.0664 74.0742 75.5762 75.8555 75.5762C77.6719 75.5762 79.084 75.1133 80.0918 74.1875C81.1113 73.25 81.6211 71.8965 81.6211 70.127C81.6211 68.416 81.0703 67.1094 79.9688 66.207C78.8789 65.3047 77.2676 64.8535 75.1348 64.8535H73.0254V63.0605Z" fill="white"/>
<defs>
<radialGradient id="paint0_radial" cx="0" cy="0" r="1" gradientUnits="userSpaceOnUse" gradientTransform="translate(65 65) rotate(90) scale(65)">
<stop offset="0.862933" stop-color="white" stop-opacity="0"/>
<stop offset="1" stop-color="white" stop-opacity="0.5"/>
</radialGradient>
</defs>
</svg>
