<svg width="107" height="56" viewBox="0 0 107 56" fill="none" xmlns="http://www.w3.org/2000/svg">
<g filter="url(#filter0_i)">
<rect width="107" height="56" rx="28" fill="white" fill-opacity="0.1"/>
</g>
<rect x="0.5" y="0.5" width="106" height="55" rx="27.5" stroke="white"/>
<path d="M29.3008 28.0469C29.3008 27.0898 29.6016 26.2832 30.2031 25.627C30.832 24.9434 31.6934 24.6016 32.7871 24.6016C33.8809 24.6016 34.7422 24.9434 35.3711 25.627C36 26.2832 36.3145 27.0898 36.3145 28.0469C36.3145 29.0039 36 29.7969 35.3711 30.4258C34.7422 31.0273 33.8809 31.3281 32.7871 31.3281C31.6934 31.3281 30.832 31.0273 30.2031 30.4258C29.6016 29.7969 29.3008 29.0039 29.3008 28.0469ZM49.3984 28.0469C49.3984 27.0898 49.6992 26.2832 50.3008 25.627C50.9297 24.9434 51.791 24.6016 52.8848 24.6016C53.9785 24.6016 54.8398 24.9434 55.4688 25.627C56.0977 26.2832 56.4121 27.0898 56.4121 28.0469C56.4121 29.0039 56.0977 29.7969 55.4688 30.4258C54.8398 31.0273 53.9785 31.3281 52.8848 31.3281C51.791 31.3281 50.9297 31.0273 50.3008 30.4258C49.6992 29.7969 49.3984 29.0039 49.3984 28.0469ZM69.4961 28.0469C69.4961 27.0898 69.7969 26.2832 70.3984 25.627C71.0273 24.9434 71.8887 24.6016 72.9824 24.6016C74.0762 24.6016 74.9375 24.9434 75.5664 25.627C76.1953 26.2832 76.5098 27.0898 76.5098 28.0469C76.5098 29.0039 76.1953 29.7969 75.5664 30.4258C74.9375 31.0273 74.0762 31.3281 72.9824 31.3281C71.8887 31.3281 71.0273 31.0273 70.3984 30.4258C69.7969 29.7969 69.4961 29.0039 69.4961 28.0469Z" fill="white" fill-opacity="0.75"/>
<defs>
<filter id="filter0_i" x="0" y="0" width="107" height="56" filterUnits="userSpaceOnUse" color-interpolation-filters="sRGB">
<feFlood flood-opacity="0" result="BackgroundImageFix"/>
<feBlend mode="normal" in="SourceGraphic" in2="BackgroundImageFix" result="shape"/>
<feColorMatrix in="SourceAlpha" type="matrix" values="0 0 0 0 0 0 0 0 0 0 0 0 0 0 0 0 0 0 127 0" result="hardAlpha"/>
<feOffset/>
<feGaussianBlur stdDeviation="7.5"/>
<feComposite in2="hardAlpha" operator="arithmetic" k2="-1" k3="1"/>
<feColorMatrix type="matrix" values="0 0 0 0 0.999002 0 0 0 0 0.999002 0 0 0 0 0.999002 0 0 0 1 0"/>
<feBlend mode="normal" in2="shape" result="effect1_innerShadow"/>
</filter>
</defs>
</svg>
